<svg version="1.1" id="Layer_1" xmlns="http://www.w3.org/2000/svg" xmlns:xlink="http://www.w3.org/1999/xlink" x="0px" y="0px"
	 width="100%" viewBox="0 0 500 500" enable-background="new 0 0 500 500" xml:space="preserve">
<path fill="#000000" opacity="1.000000" stroke="none" 
	d="
M278.000000,501.000000 
	C185.333359,501.000000 93.166710,501.000000 1.000049,501.000000 
	C1.000033,334.333405 1.000033,167.666794 1.000016,1.000139 
	C167.666565,1.000093 334.333130,1.000093 500.999756,1.000046 
	C500.999847,167.666519 500.999847,334.333038 500.999939,500.999786 
	C426.833344,501.000000 352.666656,501.000000 278.000000,501.000000 
M296.861389,301.941193 
	C296.645599,301.810822 296.429779,301.680450 296.204285,300.754059 
	C300.192993,284.965759 304.332092,269.213409 308.117371,253.376465 
	C310.621216,242.900970 312.785400,232.334030 314.672180,221.731613 
	C314.980530,219.998917 313.062042,217.869965 312.172729,215.924164 
	C310.487030,217.187103 308.100983,218.097473 307.252930,219.782089 
	C305.101379,224.056046 303.438385,228.610672 301.931396,233.169144 
	C281.922943,293.692932 261.888611,354.208496 242.066391,414.793335 
	C236.336853,432.305145 231.221725,450.018951 225.905045,467.664276 
	C224.062927,473.778046 225.275421,475.092163 231.516342,476.309723 
	C237.370087,477.451782 239.529037,474.193481 241.466049,469.679474 
	C262.597717,420.434204 283.543121,371.106445 305.083038,322.039886 
	C318.400269,291.703949 333.781250,262.435699 355.401459,236.961182 
	C357.616608,234.351089 360.711182,232.487396 363.710724,230.019867 
	C370.148163,242.951691 370.277252,255.451508 368.433502,268.110138 
	C367.652557,273.472137 364.692566,277.625702 359.931610,280.421844 
	C357.638733,281.768433 355.365997,283.170013 353.202942,284.713257 
	C343.336975,291.752106 334.481323,299.741821 330.033081,311.427612 
	C328.000031,316.768555 329.915894,320.078491 335.481323,321.477173 
	C342.243561,323.176666 348.296112,321.210327 352.747925,316.232300 
	C358.482574,309.819824 363.984741,303.078552 368.664215,295.879089 
	C372.915985,289.337708 377.328033,283.360779 384.346039,279.608978 
	C399.232941,271.650513 414.810699,265.580109 431.420868,262.401062 
	C438.526886,261.040985 445.636139,260.642609 452.340393,264.400757 
	C453.287842,264.931854 454.620117,264.776581 455.774261,264.938995 
	C455.983643,264.492706 456.193024,264.046417 456.402405,263.600128 
	C454.962036,262.486023 453.666534,260.745117 452.054779,260.372681 
	C446.736664,259.143768 441.326416,257.797089 435.911407,257.600433 
	C419.698639,257.011475 404.360779,261.614685 389.083252,266.364685 
	C386.875458,267.051147 384.492950,267.175568 382.135590,267.569397 
	C382.135590,256.820435 382.610992,247.009811 381.998169,237.267624 
	C381.417572,228.037704 375.217621,222.855408 365.976044,221.822052 
	C356.409210,220.752319 348.996033,224.258011 342.326324,230.930481 
	C332.921539,240.339203 325.633453,251.207687 319.170380,262.671783 
	C311.756805,275.821808 304.675964,289.159363 296.861389,301.941193 
M197.145340,61.740261 
	C189.672531,64.940208 181.911591,67.603256 174.776382,71.432312 
	C142.555954,88.723190 114.476273,111.611458 88.211143,136.807739 
	C79.386162,145.273605 72.223198,155.034332 67.914047,166.686691 
	C64.101456,176.996338 65.171890,186.561829 73.091278,194.343414 
	C78.986176,200.135757 85.129959,206.245346 92.311150,210.041458 
	C108.120842,218.398788 124.565681,225.586746 140.919052,232.875580 
	C162.895828,242.670822 185.200607,251.744263 207.030640,261.849030 
	C219.006775,267.392609 230.107849,274.727173 236.051208,287.361084 
	C244.846069,306.056427 235.243530,326.810577 215.496780,331.656616 
	C181.970535,339.884247 149.881241,352.066223 118.854042,367.009003 
	C111.640282,370.483124 105.036858,375.520538 98.799889,380.628906 
	C94.199417,384.396851 95.431564,388.280701 100.777809,391.050201 
	C111.885147,396.804199 123.822563,396.803253 135.423141,394.593750 
	C178.194855,386.447174 214.889313,367.057465 244.182007,334.276520 
	C248.064621,329.931549 253.586624,327.051514 258.078186,323.695679 
	C257.386810,323.352325 255.653152,322.491272 253.916519,321.628784 
	C255.278488,317.947388 256.694397,314.570831 257.786255,311.092560 
	C263.080383,294.227264 259.156464,279.676727 245.661346,268.381165 
	C238.693741,262.549225 231.158630,256.960571 223.022018,253.044601 
	C201.794312,242.828201 180.161118,233.439804 158.560135,224.018066 
	C140.913818,216.321213 122.781059,209.660065 106.861916,198.486099 
	C91.007782,187.357758 87.666328,173.787033 98.752678,157.832596 
	C106.284561,146.993423 115.328400,136.969482 124.880501,127.817139 
	C146.681839,106.928207 170.148941,88.045158 197.467621,74.623932 
	C209.275696,68.822823 221.533463,64.074905 234.840988,62.991852 
	C244.197525,62.230362 251.436172,67.285690 252.884705,75.724976 
	C253.469009,79.129181 254.205566,83.002808 253.178329,86.100967 
	C249.070938,98.488800 245.300430,111.154472 239.519562,122.779625 
	C232.141357,137.616913 222.913803,151.532318 214.565369,165.892746 
	C213.694336,167.391083 213.377411,169.211533 212.803391,170.882523 
	C213.291809,171.263519 213.780228,171.644516 214.268646,172.025513 
	C216.802963,170.127350 219.734940,168.585251 221.805954,166.272232 
	C233.693039,152.996033 245.443130,139.595154 257.105255,126.120216 
	C265.380829,116.558258 271.254486,105.661766 274.440308,93.365761 
	C280.050781,71.711525 269.616089,57.301811 247.298569,54.689716 
	C230.113693,52.678360 213.856873,55.653099 197.145340,61.740261 
z"/>
<path fill="#FBFBFB" opacity="1.000000" stroke="none" 
	d="
M197.497406,61.562988 
	C213.856873,55.653099 230.113693,52.678360 247.298569,54.689716 
	C269.616089,57.301811 280.050781,71.711525 274.440308,93.365761 
	C271.254486,105.661766 265.380829,116.558258 257.105255,126.120216 
	C245.443130,139.595154 233.693039,152.996033 221.805954,166.272232 
	C219.734940,168.585251 216.802963,170.127350 214.268646,172.025513 
	C213.780228,171.644516 213.291809,171.263519 212.803391,170.882523 
	C213.377411,169.211533 213.694336,167.391083 214.565369,165.892746 
	C222.913803,151.532318 232.141357,137.616913 239.519562,122.779625 
	C245.300430,111.154472 249.070938,98.488800 253.178329,86.100967 
	C254.205566,83.002808 253.469009,79.129181 252.884705,75.724976 
	C251.436172,67.285690 244.197525,62.230362 234.840988,62.991852 
	C221.533463,64.074905 209.275696,68.822823 197.467621,74.623932 
	C170.148941,88.045158 146.681839,106.928207 124.880501,127.817139 
	C115.328400,136.969482 106.284561,146.993423 98.752678,157.832596 
	C87.666328,173.787033 91.007782,187.357758 106.861916,198.486099 
	C122.781059,209.660065 140.913818,216.321213 158.560135,224.018066 
	C180.161118,233.439804 201.794312,242.828201 223.022018,253.044601 
	C231.158630,256.960571 238.693741,262.549225 245.661346,268.381165 
	C259.156464,279.676727 263.080383,294.227264 257.786255,311.092560 
	C256.694397,314.570831 255.278488,317.947388 253.916519,321.628784 
	C255.653152,322.491272 257.386810,323.352325 258.078186,323.695679 
	C253.586624,327.051514 248.064621,329.931549 244.182007,334.276520 
	C214.889313,367.057465 178.194855,386.447174 135.423141,394.593750 
	C123.822563,396.803253 111.885147,396.804199 100.777809,391.050201 
	C95.431564,388.280701 94.199417,384.396851 98.799889,380.628906 
	C105.036858,375.520538 111.640282,370.483124 118.854042,367.009003 
	C149.881241,352.066223 181.970535,339.884247 215.496780,331.656616 
	C235.243530,326.810577 244.846069,306.056427 236.051208,287.361084 
	C230.107849,274.727173 219.006775,267.392609 207.030640,261.849030 
	C185.200607,251.744263 162.895828,242.670822 140.919052,232.875580 
	C124.565681,225.586746 108.120842,218.398788 92.311150,210.041458 
	C85.129959,206.245346 78.986176,200.135757 73.091278,194.343414 
	C65.171890,186.561829 64.101456,176.996338 67.914047,166.686691 
	C72.223198,155.034332 79.386162,145.273605 88.211143,136.807739 
	C114.476273,111.611458 142.555954,88.723190 174.776382,71.432312 
	C181.911591,67.603256 189.672531,64.940208 197.497406,61.562988 
M218.545059,339.944122 
	C219.334915,338.744171 220.124771,337.544250 221.251007,335.833282 
	C219.513718,336.156799 218.358582,336.242981 217.288132,336.590179 
	C192.140839,344.746155 167.495743,354.197937 143.970825,366.301483 
	C136.170868,370.314545 128.903381,375.382446 121.515297,380.158142 
	C120.157837,381.035553 119.391785,382.827942 118.131592,384.489624 
	C136.475052,390.443115 192.003708,370.216095 218.545059,339.944122 
z"/>
<path fill="#FBFBFB" opacity="1.000000" stroke="none" 
	d="
M297.450562,302.415466 
	C304.675964,289.159363 311.756805,275.821808 319.170380,262.671783 
	C325.633453,251.207687 332.921539,240.339203 342.326324,230.930481 
	C348.996033,224.258011 356.409210,220.752319 365.976044,221.822052 
	C375.217621,222.855408 381.417572,228.037704 381.998169,237.267624 
	C382.610992,247.009811 382.135590,256.820435 382.135590,267.569397 
	C384.492950,267.175568 386.875458,267.051147 389.083252,266.364685 
	C404.360779,261.614685 419.698639,257.011475 435.911407,257.600433 
	C441.326416,257.797089 446.736664,259.143768 452.054779,260.372681 
	C453.666534,260.745117 454.962036,262.486023 456.402405,263.600128 
	C456.193024,264.046417 455.983643,264.492706 455.774261,264.938995 
	C454.620117,264.776581 453.287842,264.931854 452.340393,264.400757 
	C445.636139,260.642609 438.526886,261.040985 431.420868,262.401062 
	C414.810699,265.580109 399.232941,271.650513 384.346039,279.608978 
	C377.328033,283.360779 372.915985,289.337708 368.664215,295.879089 
	C363.984741,303.078552 358.482574,309.819824 352.747925,316.232300 
	C348.296112,321.210327 342.243561,323.176666 335.481323,321.477173 
	C329.915894,320.078491 328.000031,316.768555 330.033081,311.427612 
	C334.481323,299.741821 343.336975,291.752106 353.202942,284.713257 
	C355.365997,283.170013 357.638733,281.768433 359.931610,280.421844 
	C364.692566,277.625702 367.652557,273.472137 368.433502,268.110138 
	C370.277252,255.451508 370.148163,242.951691 363.710724,230.019867 
	C360.711182,232.487396 357.616608,234.351089 355.401459,236.961182 
	C333.781250,262.435699 318.400269,291.703949 305.083038,322.039886 
	C283.543121,371.106445 262.597717,420.434204 241.466049,469.679474 
	C239.529037,474.193481 237.370087,477.451782 231.516342,476.309723 
	C225.275421,475.092163 224.062927,473.778046 225.905045,467.664276 
	C231.221725,450.018951 236.336853,432.305145 242.066391,414.793335 
	C261.888611,354.208496 281.922943,293.692932 301.931396,233.169144 
	C303.438385,228.610672 305.101379,224.056046 307.252930,219.782089 
	C308.100983,218.097473 310.487030,217.187103 312.172729,215.924164 
	C313.062042,217.869965 314.980530,219.998917 314.672180,221.731613 
	C312.785400,232.334030 310.621216,242.900970 308.117371,253.376465 
	C304.332092,269.213409 300.192993,284.965759 296.083069,301.467834 
	C296.013947,302.722321 296.066040,303.263000 296.118134,303.803711 
	C296.562256,303.340942 297.006409,302.878204 297.450562,302.415466 
z"/>
<path fill="#050505" opacity="1.000000" stroke="none" 
	d="
M218.303528,340.216309 
	C192.003708,370.216095 136.475052,390.443115 118.131592,384.489624 
	C119.391785,382.827942 120.157837,381.035553 121.515297,380.158142 
	C128.903381,375.382446 136.170868,370.314545 143.970825,366.301483 
	C167.495743,354.197937 192.140839,344.746155 217.288132,336.590179 
	C218.358582,336.242981 219.513718,336.156799 221.251007,335.833282 
	C220.124771,337.544250 219.334915,338.744171 218.303528,340.216309 
z"/>
<path fill="#000000" opacity="1.000000" stroke="none" 
	d="
M297.155975,302.178345 
	C297.006409,302.878204 296.562256,303.340942 296.118134,303.803711 
	C296.066040,303.263000 296.013947,302.722321 296.087921,301.865845 
	C296.429779,301.680450 296.645599,301.810822 297.155975,302.178345 
z"/>
</svg>